<svg width="35" height="35" viewBox="0 0 35 35" fill="none" xmlns="http://www.w3.org/2000/svg">
<g id="Frame">
<path id="Vector" d="M27.7083 14.5833H29.1667C29.9721 14.5833 30.625 15.2362 30.625 16.0417V30.625C30.625 31.4304 29.9721 32.0833 29.1667 32.0833H5.83333C5.02793 32.0833 4.375 31.4304 4.375 30.625V16.0417C4.375 15.2362 5.02793 14.5833 5.83333 14.5833H7.29167V13.125C7.29167 7.4871 11.8621 2.91667 17.5 2.91667C23.1379 2.91667 27.7083 7.4871 27.7083 13.125V14.5833ZM7.29167 17.5V29.1667H27.7083V17.5H7.29167ZM16.0417 20.4167H18.9583V26.25H16.0417V20.4167ZM24.7917 14.5833V13.125C24.7917 9.09793 21.527 5.83334 17.5 5.83334C13.4729 5.83334 10.2083 9.09793 10.2083 13.125V14.5833H24.7917Z" fill="#ABA2A2"/>
</g>
</svg>
