<svg width="35" height="35" viewBox="0 0 35 35" fill="none" xmlns="http://www.w3.org/2000/svg">
<g id="Frame">
<rect width="35" height="35" fill="white"/>
<path id="Vector" d="M5.83333 32.0833C5.83333 25.64 11.0567 20.4167 17.5 20.4167C23.9434 20.4167 29.1667 25.64 29.1667 32.0833H26.25C26.25 27.2509 22.3325 23.3333 17.5 23.3333C12.6675 23.3333 8.75 27.2509 8.75 32.0833H5.83333ZM17.5 18.9583C12.6656 18.9583 8.75 15.0427 8.75 10.2083C8.75 5.37396 12.6656 1.45833 17.5 1.45833C22.3344 1.45833 26.25 5.37396 26.25 10.2083C26.25 15.0427 22.3344 18.9583 17.5 18.9583ZM17.5 16.0417C20.7229 16.0417 23.3333 13.4312 23.3333 10.2083C23.3333 6.98542 20.7229 4.375 17.5 4.375C14.2771 4.375 11.6667 6.98542 11.6667 10.2083C11.6667 13.4312 14.2771 16.0417 17.5 16.0417Z" fill="#ABA2A2"/>
</g>
</svg>
